<svg width="113" height="26" viewBox="0 0 113 26" fill="none" xmlns="http://www.w3.org/2000/svg">
<g clip-path="url(#clip0_298_317)">
<path d="M19.7006 15.4193C18.3649 20.7765 12.9383 24.0368 7.57985 22.7008C2.22366 21.3653 -1.03699 15.939 0.299321 10.5822C1.63446 5.22442 7.06104 1.96389 12.4178 3.29947C17.7759 4.63504 21.0363 10.0619 19.7004 15.4194L19.7005 15.4193H19.7006Z" fill="#F7931A"/>
<path d="M14.4101 11.5752C14.6091 10.2445 13.5958 9.52912 12.2102 9.05191L12.6597 7.24925L11.5623 6.97582L11.1247 8.73102C10.8362 8.65907 10.5399 8.59128 10.2454 8.52407L10.6862 6.75729L9.5894 6.48386L9.13966 8.28593C8.90091 8.23158 8.66641 8.17786 8.4389 8.12126L8.44017 8.11559L6.92675 7.7377L6.63482 8.90973C6.63482 8.90973 7.44904 9.09635 7.43188 9.10783C7.87629 9.21874 7.95665 9.51289 7.94331 9.74605L7.43129 11.7997C7.46189 11.8075 7.50159 11.8187 7.54539 11.8363C7.50877 11.8272 7.46981 11.8173 7.42939 11.8076L6.71171 14.6845C6.6574 14.8195 6.51955 15.0221 6.20883 14.9452C6.21983 14.9611 5.41119 14.7461 5.41119 14.7461L4.86632 16.0022L6.29448 16.3582C6.56017 16.4248 6.82053 16.4945 7.07693 16.5601L6.62279 18.3834L7.71898 18.6568L8.16872 16.8529C8.46818 16.9342 8.7588 17.0091 9.04331 17.0798L8.59509 18.8753L9.69259 19.1487L10.1467 17.3288C12.0181 17.6829 13.4252 17.5402 14.0175 15.8477C14.4948 14.485 13.9938 13.699 13.0092 13.1865C13.7263 13.0211 14.2664 12.5496 14.4104 11.5754L14.4101 11.5752L14.4101 11.5752ZM11.9026 15.0909C11.5635 16.4536 9.26891 15.717 8.52499 15.5323L9.12764 13.1166C9.87151 13.3023 12.2571 13.6698 11.9027 15.0909H11.9026ZM12.242 11.5555C11.9326 12.795 10.0229 12.1653 9.40334 12.0109L9.94973 9.82005C10.5692 9.97446 12.5643 10.2626 12.2421 11.5555H12.242Z" fill="white"/>
</g>
<path d="M26.4091 19V7.36364H30.4773C31.2879 7.36364 31.9564 7.50379 32.483 7.78409C33.0095 8.06061 33.4015 8.43371 33.6591 8.90341C33.9167 9.36932 34.0455 9.88636 34.0455 10.4545C34.0455 10.9545 33.9564 11.3674 33.7784 11.6932C33.6042 12.0189 33.3731 12.2765 33.0852 12.4659C32.8011 12.6553 32.4924 12.7955 32.1591 12.8864V13C32.5152 13.0227 32.8731 13.1477 33.233 13.375C33.5928 13.6023 33.8939 13.928 34.1364 14.3523C34.3788 14.7765 34.5 15.2955 34.5 15.9091C34.5 16.4924 34.3674 17.017 34.1023 17.483C33.8371 17.9489 33.4186 18.3182 32.8466 18.5909C32.2746 18.8636 31.5303 19 30.6136 19H26.4091ZM27.8182 17.75H30.6136C31.5341 17.75 32.1875 17.572 32.5739 17.2159C32.964 16.8561 33.1591 16.4205 33.1591 15.9091C33.1591 15.5152 33.0587 15.1515 32.858 14.8182C32.6572 14.4811 32.3712 14.2121 32 14.0114C31.6288 13.8068 31.1894 13.7045 30.6818 13.7045H27.8182V17.75ZM27.8182 12.4773H30.4318C30.8561 12.4773 31.2386 12.3939 31.5795 12.2273C31.9242 12.0606 32.197 11.8258 32.3977 11.5227C32.6023 11.2197 32.7045 10.8636 32.7045 10.4545C32.7045 9.94318 32.5265 9.50947 32.1705 9.15341C31.8144 8.79356 31.25 8.61364 30.4773 8.61364H27.8182V12.4773ZM36.6335 19V10.2727H37.9744V19H36.6335ZM37.3153 8.81818C37.054 8.81818 36.8286 8.72917 36.6392 8.55114C36.4536 8.37311 36.3608 8.15909 36.3608 7.90909C36.3608 7.65909 36.4536 7.44508 36.6392 7.26705C36.8286 7.08902 37.054 7 37.3153 7C37.5767 7 37.8002 7.08902 37.9858 7.26705C38.1752 7.44508 38.2699 7.65909 38.2699 7.90909C38.2699 8.15909 38.1752 8.37311 37.9858 8.55114C37.8002 8.72917 37.5767 8.81818 37.3153 8.81818ZM44.2259 10.2727V11.4091H39.7031V10.2727H44.2259ZM41.0213 8.18182H42.3622V16.5C42.3622 16.8788 42.4171 17.1629 42.527 17.3523C42.6406 17.5379 42.7846 17.6629 42.9588 17.7273C43.1368 17.7879 43.3243 17.8182 43.5213 17.8182C43.669 17.8182 43.7902 17.8106 43.8849 17.7955C43.9796 17.7765 44.0554 17.7614 44.1122 17.75L44.3849 18.9545C44.294 18.9886 44.1671 19.0227 44.0043 19.0568C43.8414 19.0947 43.6349 19.1136 43.3849 19.1136C43.0062 19.1136 42.6349 19.0322 42.2713 18.8693C41.9115 18.7064 41.6122 18.4583 41.3736 18.125C41.1387 17.7917 41.0213 17.3712 41.0213 16.8636V8.18182ZM49.6946 19.1818C48.8764 19.1818 48.1719 18.9886 47.581 18.6023C46.9901 18.2159 46.5355 17.6837 46.2173 17.0057C45.8991 16.3277 45.7401 15.553 45.7401 14.6818C45.7401 13.7955 45.9029 13.0133 46.2287 12.3352C46.5582 11.6534 47.0166 11.1212 47.6037 10.7386C48.1946 10.3523 48.884 10.1591 49.6719 10.1591C50.2855 10.1591 50.8385 10.2727 51.331 10.5C51.8234 10.7273 52.2268 11.0455 52.5412 11.4545C52.8556 11.8636 53.0507 12.3409 53.1264 12.8864H51.7855C51.6832 12.4886 51.456 12.1364 51.1037 11.8295C50.7552 11.5189 50.2855 11.3636 49.6946 11.3636C49.1719 11.3636 48.7135 11.5 48.3196 11.7727C47.9295 12.0417 47.6245 12.4223 47.4048 12.9148C47.1889 13.4034 47.081 13.9773 47.081 14.6364C47.081 15.3106 47.187 15.8977 47.3991 16.3977C47.6151 16.8977 47.9181 17.286 48.3082 17.5625C48.7022 17.839 49.1643 17.9773 49.6946 17.9773C50.0431 17.9773 50.3594 17.9167 50.6435 17.7955C50.9276 17.6742 51.1681 17.5 51.3651 17.2727C51.562 17.0455 51.7022 16.7727 51.7855 16.4545H53.1264C53.0507 16.9697 52.8632 17.4337 52.5639 17.8466C52.2685 18.2557 51.8764 18.5814 51.3878 18.8239C50.9029 19.0625 50.3385 19.1818 49.6946 19.1818ZM58.6321 19.1818C57.8442 19.1818 57.1529 18.9943 56.5582 18.6193C55.9673 18.2443 55.5052 17.7197 55.1719 17.0455C54.8423 16.3712 54.6776 15.5833 54.6776 14.6818C54.6776 13.7727 54.8423 12.9792 55.1719 12.3011C55.5052 11.6231 55.9673 11.0966 56.5582 10.7216C57.1529 10.3466 57.8442 10.1591 58.6321 10.1591C59.42 10.1591 60.1094 10.3466 60.7003 10.7216C61.295 11.0966 61.7571 11.6231 62.0866 12.3011C62.42 12.9792 62.5866 13.7727 62.5866 14.6818C62.5866 15.5833 62.42 16.3712 62.0866 17.0455C61.7571 17.7197 61.295 18.2443 60.7003 18.6193C60.1094 18.9943 59.42 19.1818 58.6321 19.1818ZM58.6321 17.9773C59.2306 17.9773 59.723 17.8239 60.1094 17.517C60.4957 17.2102 60.7817 16.8068 60.9673 16.3068C61.1529 15.8068 61.2457 15.2652 61.2457 14.6818C61.2457 14.0985 61.1529 13.5549 60.9673 13.0511C60.7817 12.5473 60.4957 12.1402 60.1094 11.8295C59.723 11.5189 59.2306 11.3636 58.6321 11.3636C58.0336 11.3636 57.5412 11.5189 57.1548 11.8295C56.7685 12.1402 56.4825 12.5473 56.2969 13.0511C56.1113 13.5549 56.0185 14.0985 56.0185 14.6818C56.0185 15.2652 56.1113 15.8068 56.2969 16.3068C56.4825 16.8068 56.7685 17.2102 57.1548 17.517C57.5412 17.8239 58.0336 17.9773 58.6321 17.9773ZM64.6335 19V10.2727H65.9744V19H64.6335ZM65.3153 8.81818C65.054 8.81818 64.8286 8.72917 64.6392 8.55114C64.4536 8.37311 64.3608 8.15909 64.3608 7.90909C64.3608 7.65909 64.4536 7.44508 64.6392 7.26705C64.8286 7.08902 65.054 7 65.3153 7C65.5767 7 65.8002 7.08902 65.9858 7.26705C66.1752 7.44508 66.2699 7.65909 66.2699 7.90909C66.2699 8.15909 66.1752 8.37311 65.9858 8.55114C65.8002 8.72917 65.5767 8.81818 65.3153 8.81818ZM69.7713 13.75V19H68.4304V10.2727H69.7259V11.6364H69.8395C70.044 11.1932 70.3546 10.8371 70.7713 10.5682C71.188 10.2955 71.7259 10.1591 72.3849 10.1591C72.9759 10.1591 73.4929 10.2803 73.9361 10.5227C74.3793 10.7614 74.724 11.125 74.9702 11.6136C75.2164 12.0985 75.3395 12.7121 75.3395 13.4545V19H73.9986V13.5455C73.9986 12.8598 73.8205 12.3258 73.4645 11.9432C73.1084 11.5568 72.6198 11.3636 71.9986 11.3636C71.5705 11.3636 71.188 11.4564 70.8509 11.642C70.5175 11.8277 70.2543 12.0985 70.0611 12.4545C69.8679 12.8106 69.7713 13.2424 69.7713 13.75Z" fill="#666666"/>
<path d="M82.4716 19V7.36364H86.5398C87.3504 7.36364 88.0189 7.50379 88.5455 7.78409C89.072 8.06061 89.464 8.43371 89.7216 8.90341C89.9792 9.36932 90.108 9.88636 90.108 10.4545C90.108 10.9545 90.0189 11.3674 89.8409 11.6932C89.6667 12.0189 89.4356 12.2765 89.1477 12.4659C88.8636 12.6553 88.5549 12.7955 88.2216 12.8864V13C88.5777 13.0227 88.9356 13.1477 89.2955 13.375C89.6553 13.6023 89.9564 13.928 90.1989 14.3523C90.4413 14.7765 90.5625 15.2955 90.5625 15.9091C90.5625 16.4924 90.4299 17.017 90.1648 17.483C89.8996 17.9489 89.4811 18.3182 88.9091 18.5909C88.3371 18.8636 87.5928 19 86.6761 19H82.4716ZM83.8807 17.75H86.6761C87.5966 17.75 88.25 17.572 88.6364 17.2159C89.0265 16.8561 89.2216 16.4205 89.2216 15.9091C89.2216 15.5152 89.1212 15.1515 88.9205 14.8182C88.7197 14.4811 88.4337 14.2121 88.0625 14.0114C87.6913 13.8068 87.2519 13.7045 86.7443 13.7045H83.8807V17.75ZM83.8807 12.4773H86.4943C86.9186 12.4773 87.3011 12.3939 87.642 12.2273C87.9867 12.0606 88.2595 11.8258 88.4602 11.5227C88.6648 11.2197 88.767 10.8636 88.767 10.4545C88.767 9.94318 88.589 9.50947 88.233 9.15341C87.8769 8.79356 87.3125 8.61364 86.5398 8.61364H83.8807V12.4773ZM92.2415 8.61364V7.36364H100.969V8.61364H97.3097V19H95.9006V8.61364H92.2415ZM112.023 11H110.614C110.53 10.5947 110.384 10.2386 110.176 9.93182C109.972 9.625 109.722 9.36742 109.426 9.15909C109.134 8.94697 108.811 8.78788 108.455 8.68182C108.098 8.57576 107.727 8.52273 107.341 8.52273C106.636 8.52273 105.998 8.70076 105.426 9.05682C104.858 9.41288 104.405 9.9375 104.068 10.6307C103.735 11.3239 103.568 12.1742 103.568 13.1818C103.568 14.1894 103.735 15.0398 104.068 15.733C104.405 16.4261 104.858 16.9508 105.426 17.3068C105.998 17.6629 106.636 17.8409 107.341 17.8409C107.727 17.8409 108.098 17.7879 108.455 17.6818C108.811 17.5758 109.134 17.4186 109.426 17.2102C109.722 16.9981 109.972 16.7386 110.176 16.4318C110.384 16.1212 110.53 15.7652 110.614 15.3636H112.023C111.917 15.9583 111.723 16.4905 111.443 16.9602C111.163 17.4299 110.814 17.8295 110.398 18.1591C109.981 18.4848 109.513 18.733 108.994 18.9034C108.479 19.0739 107.928 19.1591 107.341 19.1591C106.348 19.1591 105.466 18.9167 104.693 18.4318C103.92 17.947 103.313 17.2576 102.869 16.3636C102.426 15.4697 102.205 14.4091 102.205 13.1818C102.205 11.9545 102.426 10.8939 102.869 10C103.313 9.10606 103.92 8.41667 104.693 7.93182C105.466 7.44697 106.348 7.20455 107.341 7.20455C107.928 7.20455 108.479 7.28977 108.994 7.46023C109.513 7.63068 109.981 7.88068 110.398 8.21023C110.814 8.53598 111.163 8.93371 111.443 9.40341C111.723 9.86932 111.917 10.4015 112.023 11Z" fill="#C5C5C5"/>
<defs>
<clipPath id="clip0_298_317">
<rect width="20" height="20" fill="white" transform="translate(0 3)"/>
</clipPath>
</defs>
</svg>
