<svg width="80" height="80" viewBox="0 0 80 80" fill="none" xmlns="http://www.w3.org/2000/svg">
<path d="M57.7283 26.8721C67.8403 27.7041 76.3603 34.7361 79.0963 44.5041C81.8243 54.2721 78.1923 64.7041 69.9763 70.6561C71.4163 73.3441 73.6483 75.5201 76.3683 76.8961C75.9683 77.0961 67.2163 81.4721 60.1763 74.8481C58.2243 75.2001 56.2323 75.3201 54.2483 75.2001C45.6163 74.5841 37.9683 69.4081 34.1843 61.6241C30.4003 53.8401 31.0563 44.6241 35.9043 37.4561C40.7603 30.2881 49.0643 26.2481 57.6963 26.8641L57.7283 26.8721ZM55.6803 53.5441H45.0163C44.4643 53.5361 43.9363 53.7521 43.5443 54.1441C43.1523 54.5361 42.9363 55.0641 42.9363 55.6161C42.9363 56.7681 43.8643 57.6961 45.0163 57.6961H55.6803C56.8323 57.6961 57.7603 56.7601 57.7603 55.6161C57.7443 54.4801 56.8243 53.5601 55.6803 53.5601V53.5441ZM68.5203 44.3201H44.8163C44.2643 44.3201 43.7363 44.5361 43.3523 44.9281C42.9603 45.3201 42.7443 45.8481 42.7443 46.4001C42.7443 46.9521 42.9683 47.4801 43.3523 47.8641C43.7443 48.2561 44.2723 48.4721 44.8163 48.4721H68.5203C69.0723 48.4721 69.6003 48.2561 69.9923 47.8641C70.3763 47.4801 70.6003 46.9521 70.6003 46.4001C70.5923 45.2561 69.6643 44.3361 68.5203 44.3361V44.3201Z" fill="white"/>
<path opacity="0.4" d="M25.2482 3.65598C37.3202 3.64798 47.5602 12.528 49.2642 24.48C37.0162 27.472 28.4002 38.456 28.4162 51.064C28.4162 51.36 28.4162 51.656 28.4162 51.952C27.3602 52.088 26.2882 52.16 25.2242 52.16C23.7442 52.16 22.2722 52.024 20.8162 51.76C13.6082 58.536 4.60021 53.808 4.60021 53.808C7.32022 52.424 9.55222 50.248 11.0002 47.568C2.43222 41.416 -1.16779 30.44 2.08021 20.408C5.33622 10.376 14.7042 3.59998 25.2482 3.65598ZM23.1442 30.408H12.4642C11.3202 30.416 10.3922 31.344 10.3922 32.496C10.3922 33.04 10.6082 33.568 11.0002 33.96C11.3842 34.352 11.9122 34.568 12.4642 34.568H23.1442C23.6882 34.568 24.2162 34.352 24.6082 33.96C25.0002 33.568 25.2162 33.04 25.2162 32.496C25.2162 31.344 24.2882 30.416 23.1442 30.408ZM36.1602 21.192H12.4562C11.3122 21.192 10.3842 22.12 10.3842 23.272C10.3682 23.824 10.5842 24.368 10.9762 24.768C11.3682 25.16 11.9042 25.384 12.4642 25.384H36.1682C36.7202 25.384 37.2482 25.16 37.6402 24.768C38.0242 24.384 38.2482 23.848 38.2402 23.296C38.2482 22.744 38.0322 22.208 37.6402 21.808C37.2482 21.416 36.7122 21.192 36.1602 21.192Z" fill="white"/>
</svg>
